# xmcd CD database file generated by Grip 2.94
# 
# Track frame offsets:
#       150
#       12922
#       27305
#       41275
#       53280
#       67027
#       79404
#       92665
#       104992
#       117577
#       131505
#       144595
#       156475
#       168957
#       182532
#       194670
#       207212
#       220037
#       233932
#       248835
#       258602
# 
# Disc length: 3578 seconds
# 
# Revision: 3
# Processed by: cddbd v1.4PL0 Copyright (c) Steve Scherf et al.
# Submitted via: Grip 2.94
# 
DISCID=320df815
DTITLE=The Sons Of The Pioneers - The Sons Of The Pioneers Ultimate Collection
DYEAR=1900
DGENRE=
TTITLE0=Way Out There
TTITLE1=Tumbling Tumbleweeds
TTITLE2=There's A Roundup In The Sky
TTITLE3=Empty Saddles
TTITLE4=Blue Prairie
TTITLE5=One More Ride
TTITLE6=So Long To The Red River Valley
TTITLE7=Cool Water
TTITLE8=I'm An Old Cowhand (From The Rio Grande)
TTITLE9=The Hills Of Wyomin'
TTITLE10=Blue Bonnet Girl
TTITLE11=Ride, Ranger, Ride
TTITLE12=Echoes From The Hills
TTITLE13=I Follow The Stream
TTITLE14=My Saddle Pals And I
TTITLE15=Song Of The Bandit
TTITLE16=I Wonder If She Waits For Me Tonight
TTITLE17=Chant Of The Wanderer
TTITLE18=Riders In The Sky
TTITLE19=The Lilies Grow High
TTITLE20=The River Of No Return
EXTD=
EXTT0=
EXTT1=
EXTT2=
EXTT3=
EXTT4=
EXTT5=
EXTT6=
EXTT7=
EXTT8=
EXTT9=
EXTT10=
EXTT11=
EXTT12=
EXTT13=
EXTT14=
EXTT15=
EXTT16=
EXTT17=
EXTT18=
EXTT19=
EXTT20=
PLAYORDER=
